# xmcd
#
# Track frame offsets:
#	150
#	17613
#	26100
#	43414
#	54237
#	68649
#	78423
#	101737
#	118198
#	138563
#	154311
#	167366
#	182943
#	195473
#	221417
#	237086
#	258929
#	284611
#
# Disc length: 4091 seconds
#
# Revision: 12
# Processed by: cddbd v1.5.2PL0 Copyright (c) Steve Scherf et al.
# Submitted via: EZCDAudioConverter 8.0.2.1
#
DISCID=010ff912
DTITLE=JOÃO PAULO and DANIEL - AO VIVO (AMIGO É COISA PRA SE GUARDAR ...) [CD 39
DTITLE=8421369-2) CHANTECLER
DYEAR=1997
DGENRE=Sertanejo
TTITLE0=JOÃO PAULO and DANIEL - INTRODUÇÃO - VOCÊ SÓ ME FAZ FELIZ
TTITLE1=JOÃO PAULO and DANIEL - TE CUIDA CORAÇÃO
TTITLE2=JOÃO PAULO and DANIEL - CUIDA DE MIM
TTITLE3=JOÃO PAULO and DANIEL - MALÍCIA DE MULHER
TTITLE4=JOÃO PAULO and DANIEL - FOGO DE AMOR
TTITLE5=JOÃO PAULO and DANIEL - MEDLEY - MODA DE VIOLA - CHORA VIOLA - CAMINHEIR
TTITLE5=O
TTITLE6=JOÃO PAULO and DANIEL - DIA DE VISITA
TTITLE7=JOÃO PAULO and DANIEL - OLHOS CLAROS
TTITLE8=JOÃO PAULO and DANIEL - DESEJO DE AMAR
TTITLE9=JOÃO PAULO and DANIEL - ROSTO MOLHADO
TTITLE10=JOÃO PAULO and DANIEL - VAI E VOLTA
TTITLE11=JOÃO PAULO and DANIEL - ALGUÉM
TTITLE12=JOÃO PAULO and DANIEL - O CHEIRO DELA
TTITLE13=JOÃO PAULO and DANIEL - HOJE EU SEI
TTITLE14=JOÃO PAULO and DANIEL - EU ME AMARREI
TTITLE15=JOÃO PAULO and DANIEL - SÓ DÁ VOCÊ NA MINHA VIDA
TTITLE16=DANIEL - ESTOU APAIXONADO (ESTOY ENAMORADO)
TTITLE17=DANIEL - CANÇÃO DA AMÉRICA
EXTD=
EXTT0=
EXTT1=
EXTT2=
EXTT3=
EXTT4=
EXTT5=
EXTT6=
EXTT7=
EXTT8=
EXTT9=
EXTT10=
EXTT11=
EXTT12=
EXTT13=
EXTT14=
EXTT15=
EXTT16=
EXTT17=
PLAYORDER=
